<?xml version="1.0" standalone="no"?>
<svg xmlns:xlink="http://www.w3.org/1999/xlink" id="wave" style="transform:rotate(180deg); transition: 0.3s" viewBox="0 0 1440 200" version="1.1" xmlns="http://www.w3.org/2000/svg"><defs><linearGradient id="sw-gradient-0" x1="0" x2="0" y1="1" y2="0"><stop stop-color="rgba(255, 255, 255, 1)" offset="0%"/><stop stop-color="rgba(255, 255, 255, 1)" offset="100%"/></linearGradient></defs><path style="transform:translate(0, 0px); opacity:1" fill="url(#sw-gradient-0)" d="M0,60L80,66.7C160,73,320,87,480,80C640,73,800,47,960,36.7C1120,27,1280,33,1440,33.3C1600,33,1760,27,1920,33.3C2080,40,2240,60,2400,63.3C2560,67,2720,53,2880,50C3040,47,3200,53,3360,60C3520,67,3680,73,3840,63.3C4000,53,4160,27,4320,16.7C4480,7,4640,13,4800,13.3C4960,13,5120,7,5280,33.3C5440,60,5600,120,5760,120C5920,120,6080,60,6240,50C6400,40,6560,80,6720,80C6880,80,7040,40,7200,20C7360,0,7520,0,7680,23.3C7840,47,8000,93,8160,120C8320,147,8480,153,8640,146.7C8800,140,8960,120,9120,120C9280,120,9440,140,9600,126.7C9760,113,9920,67,10080,56.7C10240,47,10400,73,10560,100C10720,127,10880,153,11040,140C11200,127,11360,73,11440,46.7L11520,20L11520,200L11440,200C11360,200,11200,200,11040,200C10880,200,10720,200,10560,200C10400,200,10240,200,10080,200C9920,200,9760,200,9600,200C9440,200,9280,200,9120,200C8960,200,8800,200,8640,200C8480,200,8320,200,8160,200C8000,200,7840,200,7680,200C7520,200,7360,200,7200,200C7040,200,6880,200,6720,200C6560,200,6400,200,6240,200C6080,200,5920,200,5760,200C5600,200,5440,200,5280,200C5120,200,4960,200,4800,200C4640,200,4480,200,4320,200C4160,200,4000,200,3840,200C3680,200,3520,200,3360,200C3200,200,3040,200,2880,200C2720,200,2560,200,2400,200C2240,200,2080,200,1920,200C1760,200,1600,200,1440,200C1280,200,1120,200,960,200C800,200,640,200,480,200C320,200,160,200,80,200L0,200Z"/></svg>